<mxfile host="Electron" modified="2023-11-04T04:48:57.406Z" agent="Mozilla/5.0 (Windows NT 10.0; Win64; x64) AppleWebKit/537.36 (KHTML, like Gecko) draw.io/22.0.3 Chrome/114.0.5735.289 Electron/25.8.4 Safari/537.36" etag="vC4ovYca8YIrOvrWDsMR" version="22.0.3" type="device">
  <diagram name="Page-1" id="Ty_NPIr8UMJ6YvIxmLYT">
    <mxGraphModel dx="1038" dy="608" grid="1" gridSize="10" guides="1" tooltips="1" connect="1" arrows="1" fold="1" page="1" pageScale="1" pageWidth="827" pageHeight="1169" math="0" shadow="0">
      <root>
        <mxCell id="0" />
        <mxCell id="1" parent="0" />
        <mxCell id="UkepkLBr_rH7Vj_UJoZB-37" value="&lt;font style=&quot;font-size: 25px;&quot;&gt;&lt;font style=&quot;font-size: 25px;&quot;&gt;&lt;span style=&quot;font-weight: normal;&quot;&gt;API&lt;/span&gt; &lt;span style=&quot;font-weight: normal;&quot;&gt;to&lt;/span&gt;&lt;/font&gt;&lt;br&gt;&lt;font style=&quot;font-size: 40px;&quot; face=&quot;Tahoma&quot;&gt;RO E-Fact&lt;/font&gt;&lt;/font&gt;&lt;br&gt;&lt;div style=&quot;text-align: left;&quot;&gt;&lt;span style=&quot;font-size: 12px; font-weight: normal; font-family: Helvetica; background-color: initial;&quot;&gt;&lt;font color=&quot;#777777&quot;&gt;by RENware Software System&lt;/font&gt;&lt;/span&gt;&lt;/div&gt;" style="rounded=0;whiteSpace=wrap;html=1;fillColor=#B7D5FF;align=center;verticalAlign=middle;fontFamily=Verdana;fontSize=30;fontStyle=1;strokeColor=#000000;fontColor=#000000;spacing=0;" parent="1" vertex="1">
          <mxGeometry x="20" width="320" height="210" as="geometry" />
        </mxCell>
      </root>
    </mxGraphModel>
  </diagram>
</mxfile>
